<svg width="24" height="24" viewBox="0 0 24 24" fill="none" xmlns="http://www.w3.org/2000/svg">
<g id="ButtonTabIcon">
<g id="Icon/Logo_Ticket">
<g id="Group">
<g id="Group_2">
<path id="Vector" d="M11.817 13.213V14.1531C11.817 14.3735 11.6485 14.5492 11.4443 14.5492H8.07682C7.8694 14.5492 7.7041 14.3701 7.7041 14.1531V9.69021C7.7041 9.46981 7.87264 9.29419 8.07682 9.29419H11.3503C11.5577 9.29419 11.723 9.47326 11.723 9.69021V10.6303H9.34083V11.2467H11.4313V12.5243H9.34083V13.2165H11.817V13.213Z" fill="#12AAA2"/>
<path id="Vector_2" d="M16.7981 13.213V14.1531C16.7981 14.3735 16.6296 14.5492 16.4254 14.5492H13.0612C12.8538 14.5492 12.6885 14.3701 12.6885 14.1531V9.69021C12.6885 9.46981 12.857 9.29419 13.0612 9.29419H16.3347C16.5421 9.29419 16.7074 9.47326 16.7074 9.69021V10.6303H14.3252V11.2467H16.4157V12.5243H14.3252V13.2165H16.7981V13.213Z" fill="#12AAA2"/>
<path id="Vector_3" d="M21.2455 9.53524C21.5858 9.69709 21.8451 9.92437 22.0298 10.2274C22.2145 10.527 22.3053 10.8783 22.3053 11.2777C22.3053 11.6772 22.2145 12.0284 22.0298 12.328C21.8451 12.6276 21.5858 12.8583 21.2455 13.0202C20.9052 13.182 20.5065 13.2612 20.0528 13.2612H19.3397V14.1566C19.3397 14.377 19.1712 14.5526 18.967 14.5526H18.0465C17.8391 14.5526 17.6738 14.3735 17.6738 14.1566V9.69021C17.6738 9.46981 17.8424 9.29419 18.0465 9.29419H20.0528C20.5098 9.29419 20.9052 9.37339 21.2455 9.53524ZM20.4547 11.7288C20.5681 11.6221 20.6232 11.4706 20.6232 11.2743C20.6232 11.078 20.5681 10.9265 20.4547 10.8197C20.3412 10.713 20.1727 10.6579 19.9458 10.6579H19.3365V11.8907H19.9458C20.1727 11.8907 20.3412 11.839 20.4547 11.7288Z" fill="#12AAA2"/>
</g>
<g id="Group_3">
<path id="Vector_4" d="M1.97363 13.4919H3.28302C3.69787 13.4919 3.9053 13.3369 3.9053 13.027C3.9053 12.7171 3.69787 12.5621 3.28302 12.5621H1.97363V13.4919Z" fill="#12AAA2"/>
<path id="Vector_5" d="M0 5V5.59919C0.596354 5.59919 1.07927 6.11229 1.07927 6.74591C1.07927 7.37954 0.596354 7.89264 0 7.89264V8.95327H3.28319C4.02863 8.95327 4.58933 9.09446 4.97178 9.37684C5.35098 9.65922 5.5422 10.0346 5.5422 10.5063C5.5422 10.7818 5.47738 11.0332 5.34774 11.2536C5.2181 11.474 5.02363 11.6531 4.76759 11.7874C5.09818 11.9182 5.35422 12.1076 5.53248 12.3556C5.71398 12.6035 5.80473 12.9031 5.80473 13.2544C5.80473 13.7743 5.60378 14.1772 5.19865 14.4631C4.79352 14.7489 4.21013 14.8901 3.442 14.8901H0V15.9473C0.596354 15.9473 1.07927 16.4604 1.07927 17.094C1.07927 17.7276 0.596354 18.2407 0 18.2407V18.8399H6.11911V5H0Z" fill="#12AAA2"/>
<path id="Vector_6" d="M3.64278 10.7956C3.64278 10.5029 3.43859 10.3549 3.02698 10.3549H1.97363V11.2364H3.02698C3.43859 11.2364 3.64278 11.0883 3.64278 10.7956Z" fill="#12AAA2"/>
</g>
<path id="Vector_7" d="M22.5318 5.59919C23.0309 5.59919 23.436 6.02964 23.436 6.55996V17.2834C23.436 17.8137 23.0309 18.2442 22.5318 18.2442H6.36863V5.59919H22.5318ZM22.5318 5H5.80469V18.8399H22.5318C23.342 18.8399 24 18.1409 24 17.2799V6.55996C24 5.69905 23.342 5 22.5318 5Z" fill="#12AAA2"/>
</g>
</g>
</g>
</svg>
