<svg width="24" height="24" viewBox="0 0 24 24" fill="none" xmlns="http://www.w3.org/2000/svg">
<g id="ButtonTabIcon">
<path id="Vector" d="M11.8585 22.9998C13.2076 22.9998 14.3491 22.0658 14.6604 20.9243H9.05664C9.36796 22.0658 10.5095 22.9998 11.8585 22.9998Z" fill="#B7BAC4"/>
<path id="Subtract" fill-rule="evenodd" clip-rule="evenodd" d="M20.4247 15.783C20.53 15.8652 20.6466 15.9562 20.7831 16.0472C21.4057 16.4623 21.717 17.1887 21.6133 17.9151C21.6133 19.0566 20.6793 20.0944 19.434 20.0944H17.7736H11.8585H11.7547H5.83963H4.17925C3.03774 20.0944 2 19.1604 2 17.9151C2 17.1887 2.4151 16.4623 3.03774 16.0472C3.12116 15.9916 3.19713 15.9434 3.26764 15.8987C3.46029 15.7766 3.61222 15.6803 3.76416 15.5283C4.99749 14.3831 4.95947 12.7891 4.91983 11.1274C4.91277 10.8316 4.90567 10.5338 4.90567 10.2359C4.90567 4.83963 8.84907 3.59435 10.9245 3.28302C10.6132 3.07548 10.5095 2.66038 10.5095 2.34906C10.5095 1.62264 11.1321 1 11.8585 1C12.5849 1 13.2076 1.62264 13.2076 2.34906C13.2076 2.76415 13.1038 3.07548 12.8963 3.28302C14.7642 3.49057 18.9151 4.73586 18.9151 10.2359C18.9151 10.5531 18.9079 10.8655 18.9007 11.172C18.8612 12.8703 18.8259 14.3855 20.0566 15.5283C20.1732 15.5866 20.2897 15.6776 20.4247 15.783ZM5.27294 16.8974C5.38696 17 5.615 17 5.72902 17C5.89595 17 6.00178 16.945 6.13597 16.8753C6.18509 16.8498 6.238 16.8224 6.29911 16.7949C7.5533 15.359 7.5533 13.5128 7.5533 13.4103V9.51282C7.5533 6.4359 11.2019 6.23077 11.3159 6.23077C11.772 6.23077 12 5.92308 12 5.61539C12 5.20513 11.6579 5 11.3159 5C9.49161 5 6.18509 6.12821 6.18509 9.61539V13.4103C6.18509 13.4103 6.18509 14.8462 5.15893 15.9744C4.93089 16.2821 4.93089 16.6923 5.27294 16.8974Z" fill="#B7BAC4"/>
</g>
</svg>
