<svg width="24" height="24" viewBox="0 0 24 24" fill="none" xmlns="http://www.w3.org/2000/svg">
<g id="ButtonTabIcon">
<path id="Subtract" fill-rule="evenodd" clip-rule="evenodd" d="M1 7C1 5.34315 2.34315 4 4 4H20C21.6569 4 23 5.34315 23 7V9C21.3431 9 20 10.3431 20 12C20 13.6569 21.3431 15 23 15V17C23 18.6569 21.6569 20 20 20H4C2.34315 20 1 18.6569 1 17V15C2.65685 15 4 13.6569 4 12C4 10.3431 2.65685 9 1 9V7ZM9.5 7H8V9.5H9.5V7ZM9.5 11H8V13.5H9.5V11ZM8 15H9.5V17.5H8V15Z" fill="#12AAA2"/>
</g>
</svg>
